<?xml version="1.0" standalone="no"?>
<!DOCTYPE svg PUBLIC "-//W3C//DTD SVG 20010904//EN"
 "http://www.w3.org/TR/2001/REC-SVG-20010904/DTD/svg10.dtd">
<svg version="1.0" xmlns="http://www.w3.org/2000/svg"
 width="1173.000000pt" height="1173.000000pt" viewBox="0 0 1173.000000 1173.000000"
 preserveAspectRatio="xMidYMid meet">
<metadata>
Created by potrace 1.14, written by Peter Selinger 2001-2017
</metadata>
<g transform="translate(0.000000,1173.000000) scale(0.100000,-0.100000)"
fill="#000000" stroke="none">
<path d="M3610 11689 c0 -6 -6 -25 -14 -42 -16 -35 -97 -246 -101 -262 -1 -5
-6 -19 -10 -30 -21 -52 -47 -121 -50 -130 -1 -5 -6 -21 -12 -35 -6 -14 -61
-160 -122 -325 -62 -165 -119 -313 -126 -330 -7 -16 -18 -48 -25 -70 -7 -22
-15 -44 -19 -50 -3 -5 -6 -14 -7 -20 -1 -5 -18 -50 -38 -100 -20 -49 -36 -94
-36 -98 0 -4 -8 -27 -19 -50 -10 -23 -31 -76 -45 -117 -15 -41 -29 -82 -33
-90 -3 -8 -5 -18 -5 -22 1 -5 -3 -8 -10 -8 -6 0 -9 -3 -5 -6 3 -3 -5 -30 -18
-60 -13 -30 -25 -58 -26 -62 -5 -22 -77 -217 -124 -337 -4 -11 -9 -24 -11 -30
-1 -5 -41 -113 -89 -240 -48 -126 -114 -302 -147 -390 -33 -88 -65 -171 -71
-185 -6 -14 -11 -29 -13 -35 -3 -14 -52 -145 -64 -170 -10 -22 -44 -117 -46
-125 0 -3 -8 -22 -17 -44 -9 -21 -17 -41 -17 -44 0 -3 -16 -46 -36 -96 -20
-50 -37 -95 -39 -101 -1 -5 -5 -17 -8 -25 -9 -21 -51 -134 -52 -140 -1 -3 -7
-18 -14 -35 -7 -16 -14 -34 -15 -40 -2 -5 -7 -19 -11 -30 -5 -11 -21 -53 -36
-93 -25 -66 -26 -72 -9 -67 10 3 96 44 192 91 259 129 412 202 422 202 5 0 12
4 15 9 3 5 26 19 51 30 25 12 167 81 315 154 149 73 272 134 275 134 20 5 287
141 292 150 4 5 8 6 8 2 0 -4 30 8 67 28 36 19 72 35 79 35 7 0 14 3 16 8 2 4
37 23 78 42 41 19 77 38 78 43 2 4 8 7 14 7 10 0 406 191 438 211 8 5 22 12
30 15 15 7 316 153 334 162 8 4 -30 -55 -44 -68 -3 -3 -77 -102 -165 -220 -88
-118 -164 -219 -168 -225 -4 -5 -26 -35 -48 -65 -59 -81 -82 -112 -96 -126 -7
-7 -13 -17 -13 -22 0 -6 -3 -12 -8 -14 -4 -1 -25 -28 -47 -58 -22 -30 -48 -64
-57 -74 -10 -11 -18 -23 -18 -27 0 -5 -11 -19 -25 -33 -14 -14 -25 -27 -25
-30 0 -3 -50 -72 -111 -153 -61 -82 -121 -161 -132 -177 -12 -16 -125 -166
-250 -335 -126 -168 -237 -316 -248 -329 -10 -12 -19 -26 -19 -31 0 -5 -3 -11
-8 -13 -4 -1 -32 -37 -62 -78 -30 -41 -60 -82 -67 -90 -29 -37 -203 -271 -203
-274 0 -3 417 1 965 9 209 3 396 5 415 4 19 0 40 -1 45 -1 88 6 435 6 435 1 0
-5 -24 -33 -52 -62 -29 -30 -98 -103 -153 -162 -55 -59 -120 -129 -145 -155
-25 -26 -94 -100 -155 -165 -60 -65 -148 -158 -195 -208 -47 -49 -103 -109
-125 -132 -69 -74 -258 -275 -307 -327 -27 -28 -48 -52 -48 -54 0 -3 58 -20
100 -28 14 -3 39 -9 57 -15 17 -5 34 -7 36 -4 3 2 13 0 24 -6 10 -6 50 -17 88
-25 71 -15 112 -25 410 -96 94 -22 179 -43 190 -45 115 -25 253 -58 265 -62 8
-3 22 -7 30 -9 35 -6 78 -16 115 -26 22 -5 47 -11 56 -13 12 -3 359 -85 554
-132 11 -2 29 -6 40 -8 25 -5 47 -10 114 -28 l55 -14 -470 -233 c-258 -129
-471 -232 -473 -231 -2 2 -7 -1 -10 -6 -3 -5 -208 -109 -455 -231 -439 -218
-448 -224 -425 -240 12 -8 30 -23 39 -31 9 -9 32 -28 51 -43 79 -62 93 -74
108 -88 9 -8 37 -31 61 -50 25 -19 47 -37 50 -40 3 -3 25 -21 50 -40 25 -19
47 -37 50 -40 7 -7 118 -98 166 -135 54 -42 108 -88 116 -100 4 -5 8 -7 8 -3
0 4 13 -5 28 -20 16 -15 43 -38 62 -52 18 -14 38 -29 44 -35 6 -5 28 -23 49
-39 21 -15 35 -32 30 -36 -4 -5 -57 -25 -118 -46 -426 -144 -1063 -359 -1127
-380 -43 -13 -80 -28 -82 -33 -5 -7 39 -48 199 -185 96 -83 237 -207 245 -215
3 -3 25 -22 50 -42 25 -20 56 -47 70 -59 14 -12 47 -41 74 -64 27 -22 58 -50
70 -61 12 -11 48 -42 81 -70 33 -27 72 -62 87 -78 15 -15 30 -27 33 -27 3 0
16 -10 29 -23 12 -12 46 -42 76 -67 29 -25 67 -58 84 -73 17 -15 48 -42 70
-60 21 -18 51 -43 66 -57 15 -14 54 -47 86 -75 31 -27 67 -59 79 -70 13 -11
44 -38 71 -60 27 -22 71 -60 99 -85 28 -25 80 -70 115 -100 35 -30 71 -62 80
-70 9 -8 45 -39 80 -69 36 -30 70 -60 75 -65 6 -6 35 -31 65 -56 30 -25 57
-48 60 -51 4 -5 144 -127 194 -168 10 -9 23 -21 30 -27 10 -9 276 -239 335
-289 12 -11 33 -29 45 -40 12 -11 48 -42 80 -70 32 -27 72 -62 90 -77 17 -15
36 -27 41 -27 6 0 4 3 -2 6 -7 2 -13 11 -13 18 0 7 -3 15 -8 17 -6 2 -135 159
-215 262 -12 15 -32 40 -44 55 -18 21 -133 164 -186 231 -26 33 -93 116 -109
135 -17 21 -179 224 -226 284 -15 19 -32 39 -37 45 -6 6 -55 67 -110 136 -54
69 -104 130 -110 137 -5 7 -14 18 -20 25 -8 10 -90 113 -137 173 -5 6 -20 24
-34 40 -13 17 -44 55 -67 85 -23 30 -44 57 -47 60 -3 3 -72 88 -154 190 -81
102 -162 202 -179 223 -18 21 -33 42 -35 46 -2 5 40 20 90 31 4 1 29 9 55 17
69 21 175 53 193 58 8 2 69 20 135 40 111 34 246 74 270 79 6 2 17 6 25 9 20
8 122 37 135 38 6 0 16 5 23 11 6 6 12 8 12 5 0 -3 30 5 68 17 37 13 69 23 72
23 3 0 32 8 65 18 33 10 65 19 70 21 6 1 57 16 115 34 58 17 112 33 120 35 8
2 47 14 85 26 39 12 75 23 81 25 6 1 21 5 33 9 26 8 20 15 -60 71 -116 80
-344 249 -347 256 -2 5 -8 8 -13 8 -6 0 -15 5 -22 10 -41 35 -230 170 -238
170 -5 0 -9 3 -9 8 -1 4 -24 23 -51 42 -28 19 -65 46 -84 60 -18 14 -46 34
-61 45 -15 11 -49 36 -75 55 -27 19 -80 58 -119 85 -39 28 -80 58 -93 68 -12
11 -44 34 -72 52 -27 19 -59 42 -70 52 -11 10 -35 28 -54 40 l-34 21 24 13
c13 7 25 11 27 10 1 -2 35 7 75 19 39 12 77 23 82 24 6 2 28 8 50 14 22 6 42
11 45 11 3 0 19 5 35 11 23 9 324 99 380 114 61 16 103 28 115 33 8 3 26 8 40
10 13 2 30 9 37 15 8 6 16 8 20 5 3 -4 14 -2 25 4 11 6 29 12 40 14 22 5 82
22 108 32 16 7 23 8 60 17 14 3 86 24 160 46 74 23 171 52 215 65 44 12 136
39 205 60 69 20 132 38 140 40 8 2 16 4 18 5 2 3 4 3 47 15 17 4 58 16 92 27
34 11 65 19 68 19 2 0 23 6 45 14 22 8 42 15 45 15 3 0 10 2 17 4 7 2 38 11
68 19 30 9 93 27 140 41 285 86 357 107 374 111 19 4 318 92 481 140 252 76
363 108 384 112 14 2 29 7 35 11 6 3 16 7 21 8 6 1 89 25 185 53 96 29 182 54
190 56 16 4 205 60 410 121 69 20 153 44 187 53 35 9 63 19 63 22 0 3 -33 7
-72 9 -40 1 -102 4 -138 6 -36 2 -119 5 -185 8 -140 7 -269 13 -450 22 -71 3
-163 7 -203 9 -40 1 -75 5 -78 8 -3 3 -18 1 -34 -3 -16 -4 -31 -5 -35 -2 -3 3
-31 7 -63 8 -31 1 -120 5 -197 8 -132 6 -190 9 -430 21 -55 3 -158 7 -230 10
-254 11 -494 22 -655 31 -52 2 -144 7 -205 9 -60 3 -153 7 -205 9 -195 10
-358 18 -445 21 -49 2 -90 4 -90 5 0 1 -47 3 -105 5 -58 2 -157 6 -220 10 -63
3 -162 8 -220 10 -58 3 -154 7 -215 10 -202 11 -269 14 -430 21 -88 4 -168 6
-178 6 -27 -1 -16 9 93 89 110 81 249 184 266 198 6 5 44 32 84 61 40 29 82
61 94 71 11 11 23 19 27 19 4 0 14 6 21 13 7 6 74 57 148 112 74 55 137 102
140 105 3 3 28 21 55 40 28 19 57 40 65 47 8 7 49 37 90 67 41 31 85 63 98 73
187 138 322 238 342 253 25 19 117 87 155 115 11 8 83 61 160 118 77 57 205
152 285 211 80 59 156 116 170 126 14 11 50 37 80 59 30 22 60 45 67 51 7 5
29 21 49 35 44 30 39 31 -107 11 -183 -25 -204 -28 -229 -31 -107 -12 -148
-19 -168 -26 -17 -6 -21 -6 -16 3 4 6 3 8 -3 5 -12 -8 -65 -17 -118 -22 -22
-2 -53 -6 -70 -9 -16 -3 -52 -8 -80 -11 -60 -6 -131 -15 -165 -21 -14 -2 -49
-6 -78 -10 -29 -3 -63 -7 -75 -10 -12 -2 -43 -6 -68 -9 -26 -2 -60 -6 -75 -9
-40 -6 -101 -15 -154 -21 -25 -3 -63 -8 -85 -12 -22 -3 -56 -7 -75 -8 -19 -2
-35 -4 -35 -5 0 -1 -18 -3 -40 -6 -22 -2 -53 -6 -70 -9 -16 -3 -50 -8 -75 -10
-25 -2 -63 -7 -85 -11 -42 -7 -57 -9 -140 -18 -27 -3 -59 -7 -70 -10 -11 -2
-47 -7 -80 -11 -129 -16 -182 -22 -240 -31 -65 -9 -87 -12 -150 -19 -33 -4
-71 -9 -85 -11 -25 -5 -56 -9 -139 -18 -24 -3 -60 -8 -80 -11 -20 -3 -56 -7
-81 -10 -25 -3 -52 -7 -60 -10 -8 -2 -43 -7 -78 -10 l-63 -7 23 28 c13 15 43
48 68 74 25 26 56 60 70 77 14 17 62 71 108 121 46 50 92 100 102 112 17 20
113 127 167 187 14 15 46 51 72 78 155 169 241 267 241 278 0 4 7 7 15 7 8 0
15 3 15 8 0 8 22 33 133 155 39 43 78 87 87 96 25 30 153 172 180 201 14 15
57 62 95 105 39 43 81 90 95 105 14 15 59 65 100 111 41 46 87 96 103 111 15
15 27 29 27 32 0 2 19 25 43 49 23 24 69 75 101 111 33 37 71 80 85 95 14 15
53 58 86 96 33 37 74 82 90 100 17 17 62 67 100 110 39 43 86 95 105 116 19
20 48 52 64 71 15 18 51 58 80 89 28 30 80 88 116 128 111 124 182 204 280
311 38 41 79 86 90 100 12 14 38 43 58 65 21 22 80 87 132 145 52 58 103 114
113 125 10 11 42 46 70 79 29 32 66 73 82 90 17 18 62 68 100 111 39 43 84 93
100 111 17 17 57 62 90 100 33 37 77 85 98 106 20 21 37 40 37 43 0 3 10 16
23 28 12 12 31 33 42 46 l20 25 -35 -21 c-35 -20 -178 -97 -255 -137 -22 -12
-42 -24 -45 -27 -6 -6 -43 -21 -49 -19 -2 1 -7 -3 -10 -8 -3 -5 -37 -26 -76
-45 -38 -20 -99 -53 -135 -73 -36 -20 -103 -56 -150 -81 -47 -25 -107 -58
-135 -73 -61 -34 -148 -81 -235 -127 -90 -48 -173 -93 -255 -138 -65 -35 -163
-88 -245 -131 -19 -11 -37 -21 -40 -24 -9 -9 -65 -34 -72 -32 -5 1 -8 -2 -8
-7 0 -5 -12 -14 -27 -20 -16 -5 -53 -24 -83 -42 -80 -46 -270 -149 -274 -149
-3 0 -35 -17 -73 -39 -37 -21 -97 -54 -133 -73 -68 -37 -136 -74 -255 -138
-38 -21 -101 -54 -140 -75 -38 -20 -74 -40 -80 -45 -5 -4 -44 -25 -85 -46 -41
-21 -77 -40 -80 -43 -4 -5 -70 -40 -198 -105 -20 -10 -38 -22 -40 -27 -2 -5
-9 -9 -16 -9 -7 0 -61 -27 -120 -60 -59 -33 -110 -60 -113 -60 -3 0 -17 -8
-31 -19 -15 -10 -38 -22 -52 -26 -14 -4 -27 -11 -30 -14 -3 -4 -45 -29 -95
-56 -49 -26 -112 -60 -140 -75 -27 -15 -79 -42 -115 -61 -36 -19 -67 -36 -70
-39 -3 -3 -34 -20 -70 -39 -36 -18 -87 -46 -115 -61 -27 -15 -95 -51 -150 -80
-55 -30 -116 -63 -135 -75 -19 -11 -47 -26 -63 -33 l-27 -12 5 53 c3 28 7 68
10 87 5 40 11 91 21 170 9 79 12 98 18 160 3 30 8 71 11 90 5 34 12 89 20 160
2 19 6 58 10 85 12 96 14 110 20 170 4 33 9 74 11 90 2 17 6 53 9 80 4 28 8
64 10 80 3 17 7 57 11 90 3 33 8 71 10 85 6 32 16 135 18 177 0 18 3 33 7 33
3 0 5 10 5 23 1 25 14 149 19 175 1 9 6 44 9 77 4 33 9 78 12 100 6 44 11 80
19 165 3 30 8 66 10 80 3 14 8 55 11 92 5 61 11 103 14 103 1 0 7 57 15 145 2
25 5 45 6 45 1 0 4 22 13 115 3 30 6 55 7 55 0 0 2 11 3 25 8 71 17 134 22
141 3 5 0 9 -5 9 -6 0 -11 -5 -11 -11z"/>
</g>
</svg>
